# Blender v2.76 (sub 0) OBJ File: ''
# www.blender.org
mtllib HandyFrontDecal.mtl
o HandyFrontArmor:1_HandyFrontArmor:0.001
v -1.271090 1.271090 2.678130
v -1.059380 1.059380 3.246880
v -0.654297 1.358590 3.246880
v -0.784766 1.629690 2.678130
v -1.629690 0.784766 2.678130
v -1.358590 0.654295 3.246880
v -0.829688 1.721880 2.134380
v -0.374609 1.767190 2.678130
v -0.365820 1.879690 2.114060
v -1.342970 1.342970 2.134380
v -1.721880 0.829688 2.134380
v -1.879690 0.365820 2.114060
v -1.767190 0.374609 2.678130
v -0.603125 1.723440 1.518750
v -0.144336 1.907810 2.001560
v -1.291410 1.291410 1.518750
v -1.668750 0.803906 1.553130
v -1.832810 0.418359 1.615630
v -0.000001 1.621880 1.025780
v -0.532422 1.521880 1.025780
v -0.000001 1.835940 1.518750
v -1.139840 1.139840 1.025780
v -1.461720 0.706250 1.025780
v -1.693750 0.386523 1.208590
v -1.737500 0.007739 1.208590
v -1.879690 0.007739 1.615630
v -1.325000 0.473047 0.758984
v -0.000001 1.201560 0.553516
v -0.394531 1.127340 0.553516
v -0.844531 0.844531 0.553516
v -1.001560 0.656641 0.553516
v -0.952344 0.952342 3.393750
v -0.444531 1.271088 3.393750
v -1.271090 0.444529 3.393750
v -1.444530 0.359178 3.262500
v -1.464060 0.007738 3.290630
v -1.354690 0.007738 3.393750
v -0.355273 1.439839 3.268750
v -0.000001 1.354688 3.393750
v -0.000001 1.464059 3.290630
v -1.646880 0.163477 1.093750
v -0.215430 1.898440 2.101560
v -1.904690 0.172461 2.003120
v -1.893750 0.247852 2.101560
v -1.915620 0.007739 1.929690
v -0.000001 1.915620 1.929690
v 1.271090 1.271090 2.678130
v 0.784766 1.629690 2.678130
v 0.654297 1.358590 3.246880
v 1.059380 1.059380 3.246880
v 1.629690 0.784766 2.678130
v 1.358590 0.654295 3.246880
v 0.829688 1.721880 2.134380
v 0.365820 1.879690 2.114060
v 0.374609 1.767190 2.678130
v 1.342970 1.342970 2.134380
v 1.721880 0.829688 2.134380
v 1.879690 0.365820 2.114060
v 1.767190 0.374609 2.678130
v 0.603125 1.723440 1.518750
v 0.144336 1.907810 2.001560
v 1.291410 1.291410 1.518750
v 1.668750 0.803906 1.553130
v 1.832810 0.418359 1.615630
v 0.532422 1.521880 1.025780
v 1.139840 1.139840 1.025780
v 1.461720 0.706250 1.025780
v 1.693750 0.386523 1.208590
v 1.879690 0.007733 1.615630
v 1.737500 0.007733 1.208590
v 1.325000 0.473047 0.758984
v 0.394531 1.127340 0.553516
v 0.844531 0.844531 0.553516
v 1.001560 0.656641 0.553516
v 0.444531 1.271088 3.393750
v 0.952344 0.952342 3.393750
v 1.271090 0.444529 3.393750
v 1.354690 0.007732 3.393750
v 1.464060 0.007732 3.290630
v 1.444530 0.359178 3.262500
v 0.355273 1.439839 3.268750
v -0.000001 1.464059 3.290630
v -0.000001 1.354688 3.393750
v 1.646880 0.163477 1.093750
v 0.215430 1.898440 2.101560
v 1.893750 0.247852 2.101560
v 1.904690 0.172461 2.003120
v 1.915620 0.007733 1.929690
v 1.904690 0.172461 2.003120
v 1.915620 0.007733 1.929690
v 1.792190 0.007733 1.635940
vt 0.772413 0.380868
vt 0.800545 0.482970
vt 0.719485 0.510064
vt 0.678043 0.409080
vt 0.867985 0.358344
vt 0.883881 0.464333
vt 0.650786 0.322336
vt 0.607608 0.436277
vt 0.568472 0.339411
vt 0.749011 0.296336
vt 0.847365 0.269933
vt 0.928621 0.244385
vt 0.941845 0.347078
vt 0.598166 0.231100
vt 0.526289 0.324525
vt 0.722935 0.203090
vt 0.818382 0.179483
vt 0.887923 0.165071
vt 0.500000 0.153057
vt 0.586314 0.145976
vt 0.500000 0.239971
vt 0.698637 0.121139
vt 0.782981 0.091595
vt 0.856895 0.097386
vt 0.917205 0.065101
vt 0.954511 0.135177
vt 0.782495 0.024342
vt 0.500000 0.046569
vt 0.571325 0.039515
vt 0.665132 0.015791
vt 0.707517 0.000078
vt 0.810295 0.518099
vt 0.711219 0.557212
vt 0.914034 0.500811
vt 0.937402 0.465483
vt 0.999922 0.479218
vt 0.994491 0.505921
vt 0.672910 0.539892
vt 0.642344 0.604134
vt 0.623789 0.583573
vt 0.878496 0.057569
vt 0.541291 0.340641
vt 0.954751 0.212786
vt 0.948116 0.234550
vt 0.977545 0.188585
vt 0.500000 0.312372
vt 0.227588 0.380869
vt 0.321958 0.409081
vt 0.280516 0.510064
vt 0.199455 0.482971
vt 0.132016 0.358346
vt 0.116120 0.464334
vt 0.349214 0.322337
vt 0.431528 0.339411
vt 0.392393 0.436278
vt 0.250989 0.296337
vt 0.152635 0.269935
vt 0.071379 0.244387
vt 0.058155 0.347079
vt 0.401834 0.231100
vt 0.473711 0.324525
vt 0.277064 0.203091
vt 0.181618 0.179485
vt 0.112077 0.165072
vt 0.413686 0.145976
vt 0.301362 0.121140
vt 0.217019 0.091596
vt 0.143104 0.097387
vt 0.045488 0.135178
vt 0.082794 0.065102
vt 0.217504 0.024343
vt 0.428674 0.039515
vt 0.334867 0.015791
vt 0.292482 0.000079
vt 0.288782 0.557213
vt 0.189706 0.518100
vt 0.085967 0.500812
vt 0.005509 0.505923
vt 0.000078 0.479220
vt 0.062599 0.465485
vt 0.327091 0.539893
vt 0.376212 0.583574
vt 0.357657 0.604135
vt 0.121504 0.057571
vt 0.458710 0.340641
vt 0.051884 0.234551
vt 0.045248 0.212787
vt 0.022454 0.188587
vn -0.526800 0.713900 0.461400
vn -0.527000 0.713500 0.461800
vn -0.526800 0.713800 0.461500
vn -0.526600 0.714100 0.461200
vn -0.713800 0.526800 0.461500
vn -0.713700 0.527200 0.461100
vn -0.713800 0.526800 0.461400
vn -0.713900 0.526400 0.461700
vn -0.312400 0.932000 0.183800
vn -0.309600 0.933400 0.181300
vn -0.583800 0.791300 0.182000
vn -0.583600 0.791400 0.181800
vn -0.583800 0.791200 0.182100
vn -0.584000 0.791000 0.182400
vn -0.791200 0.583800 0.182100
vn -0.791400 0.583500 0.182400
vn -0.791100 0.584000 0.181800
vn -0.932500 0.312600 0.181100
vn -0.933000 0.309400 0.183700
vn -0.208500 0.963200 -0.169700
vn -0.324500 0.938600 -0.117000
vn -0.589900 0.799100 -0.116300
vn -0.522000 0.831500 -0.190000
vn -0.800500 0.591000 -0.099400
vn -0.789400 0.602800 -0.116600
vn -0.944600 0.323700 -0.054700
vn -0.921300 0.375700 -0.100900
vn -0.169700 0.903400 -0.393700
vn -0.168600 0.904100 -0.392600
vn -0.490300 0.779700 -0.389400
vn -0.489500 0.779800 -0.390300
vn -0.489600 0.779800 -0.390100
vn -0.490400 0.779800 -0.389200
vn -0.740700 0.545700 -0.391800
vn -0.737600 0.547600 -0.395100
vn -0.887100 0.324300 -0.328400
vn -0.835500 0.378700 -0.398100
vn -0.938100 0.108400 -0.329000
vn -0.938600 0.107200 -0.327900
vn -0.774300 0.223400 -0.592100
vn -0.139200 0.739700 -0.658400
vn -0.138900 0.739700 -0.658500
vn -0.403200 0.641100 -0.653000
vn -0.402900 0.641100 -0.653200
vn -0.640600 0.384800 -0.664600
vn -0.613300 0.455300 -0.645400
vn -0.416100 0.563300 0.713800
vn -0.329900 0.525500 0.784200
vn -0.483900 0.357400 0.798800
vn -0.597500 0.375000 0.708800
vn -0.630400 0.096700 0.770200
vn -0.680200 0.130200 0.721400
vn -0.839500 0.281400 0.464700
vn -0.840000 0.269500 0.470900
vn -0.656600 0.229200 0.718600
vn -0.263700 0.845800 0.463700
vn -0.280200 0.835700 0.472400
vn -0.230600 0.655000 0.719600
vn -0.118600 0.630800 0.766800
vn -0.091200 0.683200 0.724600
vn -0.778400 0.150200 -0.609500
vn -0.841200 0.097200 -0.532000
vn -0.575800 0.481200 -0.661000
vn -0.123300 0.992400 0.005300
vn -0.993000 0.116100 0.021500
vn -0.982700 0.169800 -0.074500
vn -0.986800 0.115800 -0.112900
vn -0.987300 0.112700 -0.111600
vn -0.179800 0.963700 -0.197200
vn -0.146300 0.971200 -0.188300
vn 0.526800 0.713900 0.461400
vn 0.526600 0.714100 0.461200
vn 0.526800 0.713800 0.461500
vn 0.527000 0.713500 0.461800
vn 0.713800 0.526800 0.461500
vn 0.713900 0.526400 0.461700
vn 0.713800 0.526800 0.461400
vn 0.713700 0.527200 0.461100
vn 0.309600 0.933400 0.181300
vn 0.312400 0.932000 0.183800
vn 0.583800 0.791300 0.182000
vn 0.584000 0.791000 0.182400
vn 0.583800 0.791200 0.182100
vn 0.583600 0.791400 0.181800
vn 0.791200 0.583800 0.182100
vn 0.791100 0.584000 0.181800
vn 0.791400 0.583500 0.182400
vn 0.933000 0.309400 0.183700
vn 0.932500 0.312600 0.181100
vn 0.208500 0.963200 -0.169700
vn 0.324500 0.938600 -0.117000
vn 0.522000 0.831500 -0.190000
vn 0.589900 0.799100 -0.116300
vn 0.789400 0.602800 -0.116600
vn 0.800500 0.591000 -0.099400
vn 0.921300 0.375700 -0.100900
vn 0.944600 0.323700 -0.054700
vn 0.168600 0.904100 -0.392600
vn 0.169700 0.903400 -0.393700
vn 0.490400 0.779700 -0.389300
vn 0.490400 0.779800 -0.389200
vn 0.489600 0.779800 -0.390100
vn 0.489500 0.779800 -0.390300
vn 0.737600 0.547600 -0.395100
vn 0.740700 0.545700 -0.391800
vn 0.835500 0.378700 -0.398100
vn 0.887100 0.324300 -0.328400
vn 0.938600 0.107200 -0.327900
vn 0.938100 0.108400 -0.329000
vn 0.774300 0.223400 -0.592100
vn 0.139100 0.739700 -0.658400
vn 0.139200 0.739700 -0.658400
vn 0.139000 0.739700 -0.658400
vn 0.138900 0.739700 -0.658500
vn 0.403100 0.641100 -0.653100
vn 0.402900 0.641100 -0.653200
vn 0.403200 0.641100 -0.653000
vn 0.613300 0.455300 -0.645400
vn 0.640600 0.384800 -0.664600
vn 0.329900 0.525500 0.784200
vn 0.416100 0.563300 0.713800
vn 0.597500 0.375000 0.708800
vn 0.483900 0.357400 0.798800
vn 0.680200 0.130200 0.721400
vn 0.630400 0.096700 0.770200
vn 0.840000 0.269500 0.470900
vn 0.839500 0.281400 0.464700
vn 0.656600 0.229200 0.718600
vn 0.280200 0.835700 0.472400
vn 0.263700 0.845800 0.463700
vn 0.230600 0.655000 0.719600
vn 0.091200 0.683200 0.724600
vn 0.118600 0.630800 0.766800
vn 0.778400 0.150200 -0.609500
vn 0.841200 0.097200 -0.532000
vn 0.575800 0.481200 -0.661000
vn 0.123300 0.992400 0.005300
vn 0.993000 0.116100 0.021500
vn 0.982700 0.169800 -0.074500
vn 0.987300 0.112700 -0.111600
vn 0.986800 0.115800 -0.112900
vn 0.146300 0.971200 -0.188300
vn 0.179800 0.963700 -0.197200
usemtl NoMaterial
s 1
f 1/1/1 2/2/2 3/3/3
f 3/3/3 4/4/4 1/1/1
f 5/5/5 6/6/6 2/2/7
f 2/2/7 1/1/8 5/5/5
f 7/7/9 4/4/9 8/8/9
f 8/8/10 9/9/10 7/7/10
f 10/10/11 1/1/12 4/4/13
f 4/4/13 7/7/14 10/10/11
f 11/11/15 5/5/16 1/1/15
f 1/1/15 10/10/17 11/11/15
f 12/12/18 13/13/18 5/5/18
f 5/5/19 11/11/19 12/12/19
f 14/14/20 9/9/20 15/15/20
f 7/7/21 9/9/21 14/14/21
f 16/16/22 10/10/22 7/7/22
f 7/7/23 14/14/23 16/16/23
f 17/17/24 11/11/24 10/10/24
f 10/10/25 16/16/25 17/17/25
f 18/18/26 12/12/26 11/11/26
f 11/11/27 17/17/27 18/18/27
f 19/19/28 20/20/28 14/14/28
f 14/14/29 21/21/29 19/19/29
f 22/22/30 16/16/31 14/14/32
f 14/14/32 20/20/33 22/22/30
f 23/23/34 17/17/34 16/16/34
f 16/16/35 22/22/35 23/23/35
f 24/24/36 18/18/36 17/17/36
f 17/17/37 23/23/37 24/24/37
f 18/18/38 24/24/38 25/25/38
f 25/25/39 26/26/39 18/18/39
f 23/23/40 27/27/40 24/24/40
f 19/19/41 28/28/41 29/29/41
f 29/29/42 20/20/42 19/19/42
f 30/30/43 22/22/43 20/20/43
f 20/20/44 29/29/44 30/30/44
f 31/31/45 27/27/45 23/23/45
f 23/23/46 22/22/46 31/31/46
f 3/3/47 2/2/47 32/32/47
f 32/32/48 33/33/48 3/3/48
f 2/2/49 6/6/49 34/34/49
f 34/34/50 32/32/50 2/2/50
f 34/34/51 35/35/51 36/36/51
f 36/36/52 37/37/52 34/34/52
f 6/6/53 5/5/53 13/13/53
f 13/13/54 35/35/54 6/6/54
f 6/6/55 35/35/55 34/34/55
f 4/4/56 3/3/56 38/38/56
f 38/38/57 8/8/57 4/4/57
f 3/3/58 33/33/58 38/38/58
f 38/38/59 33/33/59 39/39/59
f 39/39/60 40/40/60 38/38/60
f 24/24/61 27/27/61 41/41/61
f 41/41/62 25/25/62 24/24/62
f 22/22/63 30/30/63 31/31/63
f 42/42/64 15/15/64 9/9/64
f 12/12/65 43/43/65 44/44/65
f 12/12/66 18/18/66 43/43/66
f 26/26/67 45/45/67 43/43/67
f 43/43/68 18/18/68 26/26/68
f 21/21/69 14/14/69 15/15/69
f 15/15/70 46/46/70 21/21/70
f 47/47/71 48/48/72 49/49/73
f 49/49/73 50/50/74 47/47/71
f 51/51/75 47/47/76 50/50/77
f 50/50/77 52/52/78 51/51/75
f 53/53/79 54/54/79 55/55/79
f 55/55/80 48/48/80 53/53/80
f 56/56/81 53/53/82 48/48/83
f 48/48/83 47/47/84 56/56/81
f 57/57/85 56/56/86 47/47/85
f 47/47/85 51/51/87 57/57/85
f 58/58/88 57/57/88 51/51/88
f 51/51/89 59/59/89 58/58/89
f 60/60/90 61/61/90 54/54/90
f 53/53/91 60/60/91 54/54/91
f 62/62/92 60/60/92 53/53/92
f 53/53/93 56/56/93 62/62/93
f 63/63/94 62/62/94 56/56/94
f 56/56/95 57/57/95 63/63/95
f 64/64/96 63/63/96 57/57/96
f 57/57/97 58/58/97 64/64/97
f 19/19/98 21/21/98 60/60/98
f 60/60/99 65/65/99 19/19/99
f 66/66/100 65/65/101 60/60/102
f 60/60/102 62/62/103 66/66/100
f 67/67/104 66/66/104 62/62/104
f 62/62/105 63/63/105 67/67/105
f 68/68/106 67/67/106 63/63/106
f 63/63/107 64/64/107 68/68/107
f 64/64/108 69/69/108 70/70/108
f 70/70/109 68/68/109 64/64/109
f 67/67/110 68/68/110 71/71/110
f 72/72/111 28/28/112 19/19/113
f 19/19/113 65/65/114 72/72/111
f 73/73/115 72/72/116 65/65/115
f 65/65/115 66/66/117 73/73/115
f 74/74/118 66/66/118 67/67/118
f 67/67/119 71/71/119 74/74/119
f 49/49/120 75/75/120 76/76/120
f 76/76/121 50/50/121 49/49/121
f 50/50/122 76/76/122 77/77/122
f 77/77/123 52/52/123 50/50/123
f 77/77/124 78/78/124 79/79/124
f 79/79/125 80/80/125 77/77/125
f 52/52/126 80/80/126 59/59/126
f 59/59/127 51/51/127 52/52/127
f 52/52/128 77/77/128 80/80/128
f 48/48/129 55/55/129 81/81/129
f 81/81/130 49/49/130 48/48/130
f 49/49/131 81/81/131 75/75/131
f 81/81/132 82/82/132 83/83/132
f 83/83/133 75/75/133 81/81/133
f 68/68/134 84/84/134 71/71/134
f 84/84/135 68/68/135 70/70/135
f 66/66/136 74/74/136 73/73/136
f 85/85/137 54/54/137 61/61/137
f 58/58/138 86/86/138 87/87/138
f 58/58/139 87/87/139 64/64/139
f 69/69/140 64/64/140 87/87/140
f 87/87/141 88/88/141 69/69/141
f 21/21/142 46/46/142 61/61/142
f 61/61/143 60/60/143 21/21/143
l 90 91
l 89 90
